# xmcd
#
# Track frame offsets:
#	150
#	15080
#	32859
#	47557
#	71775
#	85140
#	104996
#	116899
#	138391
#	156591
#
# Disc length: 2276 seconds
#
# Revision: 1
# Processed by: cddbd v1.5.2PL0 Copyright (c) Steve Scherf et al.
# Submitted via: audiograbber 1.83.01
#
DISCID=8c08e20a
DTITLE=Boiling Ink - Ten Years
DYEAR=2011
DGENRE=Blues Rock
TTITLE0=Hideaway
TTITLE1=Twist of the Knife
TTITLE2=Pipeline
TTITLE3=Moonchild
TTITLE4=Ventures Medley
TTITLE5=Laundromat
TTITLE6=Johnny Guitar
TTITLE7=Off the Handle
TTITLE8=I'm your Hoochie Coochie Man
TTITLE9=Violent Love
EXTD=
EXTT0=(King, Thompson)
EXTT1=(Giles, Jones, Wilson)
EXTT2=(Carman, Spickard)
EXTT3=(Gallagher)
EXTT4=(The Ventures]\nWalk don't run (Smith]\nPerfidia (Dominguez]\nLullaby of 
EXTT4=the Leaves (Petkere, Young)
EXTT5=(Gallagher)
EXTT6=(Watson, Winter)
EXTT7=(Gallagher)
EXTT8=(Dixon)
EXTT9=(Dixon)
PLAYORDER=
